<svg id="enjine-logo" viewBox="0 0 87 23">
<title>enjine</title>
    <path d="M3.21658831,20.0652819 L12,20.0652819 L12,23 L0,23 L0,0 L11.9919409,0 L11.9919409,2.9347181 L3.21658831,2.9347181 L3.21658831,10.0326409 L12,10.0326409 L12,12.9673591 L3.21658831,12.9673591 L3.21658831,20.0652819 Z M15,23 L15,0 L19.1123596,0 L24.7078652,9.6231454 C25.7415782,11.4203849 26.6797711,13.0811002 27.5224719,14.6053412 C28.3651728,16.1295823 28.9438187,17.19881 29.258427,17.8130564 L29.7303371,18.768546 C29.5955049,16.6983081 29.5280899,13.6612465 29.5280899,9.65727003 L29.5280899,0 L33,0 L33,23 L28.8876404,23 L23.258427,13.4109792 C22.247186,11.6819894 21.3202289,10.0497109 20.4775281,8.51409496 C19.6348272,6.97847897 19.0449455,5.86943961 18.7078652,5.18694362 L18.2022472,4.19732938 C18.3820234,6.47231602 18.4719101,9.53212717 18.4719101,13.3768546 L18.4719101,23 L15,23 Z M35,22.2833828 L35,19.041543 C36.0237255,19.6102897 37.0474356,19.8946588 38.071161,19.8946588 C40.118612,19.8946588 41.1423221,18.9050544 41.1423221,16.925816 L41.1423221,0 L45,0 L45,16.7893175 C45,18.9050551 44.4319657,20.4690849 43.2958801,21.481454 C42.1597946,22.4938231 40.6304715,23 38.7078652,23 C37.1597925,23 35.9238498,22.76113 35,22.2833828 Z M48,23 L48,0 L52,0 L52,23 L48,23 Z M58.1123596,0 L63.7078652,9.6231454 C64.7415782,11.4203849 65.6797711,13.0811002 66.5224719,14.6053412 C67.3651728,16.1295823 67.9438187,17.19881 68.258427,17.8130564 L68.7303371,18.768546 C68.6016337,16.7924099 68.5343578,13.9353455 68.5285077,10.1972736 L68.5280899,0 L72,0 L72,23 L67.8876404,23 L62.258427,13.4109792 C61.247186,11.6819894 60.3202289,10.0497109 59.4775281,8.51409496 C58.6348272,6.97847897 58.0449455,5.86943961 57.7078652,5.18694362 L57.2022472,4.19732938 C57.3725615,6.35257988 57.4621993,9.21221581 57.4711631,12.7763152 L57.4719101,23 L54,23 L54,0 L58.1123596,0 Z M86.9919409,0 L86.9919409,2.9347181 L78.2165883,2.9347181 L78.2165883,10.0326409 L87,10.0326409 L87,12.9673591 L78.2165883,12.9673591 L78.2165883,20.0652819 L87,20.0652819 L87,23 L75,23 L75,0 L86.9919409,0 Z" id="ENJINE"></path>
</svg>